<svg width="" height="" fill="none" xmlns="http://www.w3.org/2000/svg" viewBox="0 0 30.471 30.7"><g xmlns="http://www.w3.org/2000/svg">
    <path fill="#101233" d="m15.235,30.47c8.4141,0 15.235,-6.8209 15.235,-15.235c0,-8.41406 -6.8209,-15.235 -15.235,-15.235c-8.4141,0 -15.235,6.82094 -15.235,15.235c0,8.4141 6.8209,15.235 15.235,15.235z"/>
    <path fill="#03F5AE" d="m10.9326,26.2286c0,0 1.3791,-0.9483 4.3115,-0.9483c2.9325,0 4.3122,0.9483 4.3122,0.9483c0,0 -0.4023,0.5094 -0.8855,0.6618c-0.4833,0.1523 -1.1268,0.0091 -1.9318,0.5813c-0.805,0.5723 -1.4949,0.5101 -1.4949,0.5101c0,0 -0.6898,0.0609 -1.4942,-0.5101c-0.8044,-0.571 -1.4492,-0.4296 -1.9324,-0.5813c-0.4833,-0.1518 -0.8849,-0.6618 -0.8849,-0.6618z" clip-rule="evenodd" fill-rule="evenodd"/>
    <path fill="#03F5AE" d="m14.2222,5.65097c-0.8337,-0.04571 -2.0159,0.05423 -2.7228,-0.19684c-1.2072,-0.42658 -1.4016,-0.85865 -2.4236,-0.64414c-0.7459,0.15662 -0.9232,0.74103 -0.997,1.3352c1.8087,-0.32481 2.8447,0.09507 2.8447,0.09507c-2.5991,0.27727 -3.4797,0.98052 -3.5345,1.0244c-0.0687,0.06154 -0.1258,0.13479 -0.1688,0.21633c-0.0841,0.17856 -0.0189,0.24376 -0.0037,0.596c3.6113,-1.09692 6.4962,-0.33517 6.4962,-0.33517c-2.6326,0.06094 -5.094,0.5186 -7.4493,1.66244l0.3461,1.21214c2.1659,-0.78068 3.3847,-0.2249 3.3847,-0.2249c-1.2942,0.3119 -2.5416,0.793 -3.7101,1.4309l0.2225,0.5618c-0.5022,0.3858 -0.9141,1.8252 -0.9141,1.8252c-0.1219,-0.7782 0.3656,-1.8514 0.3656,-1.8514c-1.0195,0.061 -1.4016,1.0287 -1.4016,1.8337c0,0.805 0.5161,1.7136 1.142,2.3048c0.6258,0.5911 0.7691,1.2431 0.7691,1.2431c0.4747,-1.2974 -0.4473,-1.4016 -0.1963,-2.9428c0.2511,-1.5411 2.1012,-2.3608 2.1012,-2.3608c-0.3798,-0.0836 -0.7654,-0.1388 -1.1536,-0.1651c0.7965,-0.1219 1.3541,-1.398 6.2884,1.8075c4.9344,3.2054 7.9899,-0.0372 9.6286,-1.0184c0.4875,0.398 0.9969,0.9812 1.12,1.7368c0.2505,1.5388 -0.6703,1.6454 -0.1968,2.9428c0,0 0.1432,-0.6526 0.7691,-1.2431c0.6258,-0.5906 1.145,-1.5028 1.145,-2.3072c0,-0.8044 -0.3845,-1.7709 -1.4046,-1.8337c0,0 0.4924,1.0731 0.3656,1.8513c0,0 -0.4266,-1.493 -0.9433,-1.8452l0.2711,-0.6838l-0.2516,-0.1791c-3.5132,-2.12989 -8.7663,-2.0531 -8.7663,-2.0531c5.0885,-0.4473 8.6815,1.1932 8.6815,1.1932l0.2993,-1.23037l-0.9214,-0.45035c0,0 0.0402,-0.87815 -0.1122,-1.20052c-0.0896,-0.19013 -0.351,-0.37722 -0.5484,-0.49849c-1.9142,-0.84036 -5.2074,-1.01891 -5.2074,-1.01891c2.9319,-0.27119 4.3877,-0.0902 4.9746,0.03107c-0.1018,-0.61793 -0.3657,-1.52959 -1.0281,-1.66914c-0.4339,-0.09141 -0.7191,-0.06643 -0.9964,0.0262c-0.1218,-0.13955 -0.4991,-0.54541 -0.9384,-0.68374c-0.5339,-0.1682 -1.2456,-0.01036 -2.1329,-0.64292c-0.8873,-0.63256 -1.6527,-0.56309 -1.6527,-0.56309c0,0 -0.7624,-0.06886 -1.6521,0.5637c-0.8897,0.63255 -1.6015,0.47472 -2.1329,0.64291c-0.5314,0.1682 -0.9787,0.73128 -0.9787,0.73128c0,0 1.0719,0.73616 3.3285,0.97504l-0.0042,-0.0006z" clip-rule="evenodd" fill-rule="evenodd"/>
    <path fill="#03F5AE" d="m15.2441,24.7892c0,0 -2.5046,0.0091 -3.7124,0.4381c-1.2079,0.429 -1.4016,0.8587 -2.4236,0.6442c-0.7465,-0.1573 -0.905,-0.8166 -0.9787,-1.4114c1.8087,0.3254 2.7941,-0.2261 2.7941,-0.2261c-2.5991,-0.2779 -3.4797,-0.9811 -3.5345,-1.0244c-0.0687,-0.0615 -0.1258,-0.1348 -0.1688,-0.2163c-0.0841,-0.1792 -0.0561,-0.2986 -0.0409,-0.6503c3.612,1.0957 6.5322,0.3876 6.5322,0.3876c-2.6326,-0.0609 -5.094,-0.5186 -7.4493,-1.6624l0.3589,-1.3462c2.2548,0.5655 3.37,0.3608 3.37,0.3608c-1.2937,-0.3113 -2.5407,-0.7918 -3.7088,-1.4291l0.284,-0.716c3.6485,1.4881 13.7042,1.4881 17.3526,0l0.3401,0.8586l-0.2486,0.1786c-3.5132,2.1329 -8.7663,2.0561 -8.7663,2.0561c5.0885,0.4473 8.6815,-1.1932 8.6815,-1.1932l0.2993,1.2304l-0.9214,0.4473c0,0 0.1163,1.1536 -0.036,1.4759c-0.0896,0.1896 -0.351,0.3766 -0.5485,0.4979c-1.9141,0.841 -5.2835,0.7441 -5.2835,0.7441c2.9319,0.2712 4.3652,0.3016 4.9496,0.1828c-0.1018,0.6179 -0.3388,1.3175 -1.0031,1.4577c-1.0201,0.2145 -1.2188,-0.2145 -2.4242,-0.6441c-1.2054,-0.4297 -3.7124,-0.4382 -3.7124,-0.4382l-0.0013,-0.0024z" clip-rule="evenodd" fill-rule="evenodd"/>
    <path fill="white" d="m9.7961,14.9565c0,0 -0.4662,1.1207 0.4473,1.568c0.9135,0.4473 3.2079,0.2212 3.2079,0.2212c0,0 -1.9891,-1.4662 -3.6564,-1.7892l0.0012,0z" clip-rule="evenodd" fill-rule="evenodd"/>
    <path fill="white" d="m21.1663,16.1071c0,0 0.1785,0.9299 -0.5905,1.1268c-0.7691,0.1968 -2.4864,-0.3395 -2.4864,-0.3395c0,0 1.7527,-0.8062 3.0769,-0.7873z" clip-rule="evenodd" fill-rule="evenodd"/>
    <path fill="#03F5AE" d="m24.4327,9.46033c0,0 1.7392,0.11395 2.7983,0.70747c0.9184,0.5138 1.8124,1.6972 1.8124,1.6972c0,0 -1.312,0.4132 -1.7203,0.8934c-0.3748,0.4424 -0.4522,0.6429 -0.4522,0.6429c0,0 -0.9702,-1.9641 -2.7179,-2.6856l0.2797,-1.25537z"/>
    <path fill="#03F5AE" d="m21.5514,25.6953c0,0 0.8617,0.7551 1.6302,0.9751c0.666,0.1877 1.6319,0.0536 1.6319,0.0536c0,0 -0.418,-0.802 -0.3845,-1.2151c0.0311,-0.3803 0.0884,-0.5095 0.0884,-0.5095c-0.7332,-0.1012 -1.4501,-0.297 -2.1329,-0.5826l-0.8331,1.2785z"/>
    <path fill="#03F5AE" d="m6.264,17.7774c0,0 -1.3108,1.1493 -2.47963,1.4796c-1.01282,0.2852 -2.48209,0.0811 -2.48209,0.0811c0,0 0.63622,-1.2206 0.58686,-1.8483c-0.04754,-0.5777 -0.13468,-0.7746 -0.13468,-0.7746c0,0 2.07501,0.7033 3.82094,-0.0225l0.6886,1.0847z"/>
    <path fill="#03F5AE" d="m10.7864,4.5644c0,0 -0.9714,-0.71178 -1.3687,-1.45098c-0.3443,-0.63987 -0.4266,-1.66184 -0.4266,-1.66184c0,0 0.9184,0.24376 1.3346,0.11762c0.3827,-0.11884 0.5021,-0.20659 0.5021,-0.20659c0,0 -0.1633,1.50461 0.5863,2.5735l-0.6277,0.62829z"/>
 </g>
</svg>